%TF.GenerationSoftware,KiCad,Pcbnew,(6.0.11)*%
%TF.CreationDate,2025-03-13T12:33:08+04:00*%
%TF.ProjectId,gig_E,6769675f-452e-46b6-9963-61645f706362,rev?*%
%TF.SameCoordinates,Original*%
%TF.FileFunction,Legend,Top*%
%TF.FilePolarity,Positive*%
%FSLAX46Y46*%
G04 Gerber Fmt 4.6, Leading zero omitted, Abs format (unit mm)*
G04 Created by KiCad (PCBNEW (6.0.11)) date 2025-03-13 12:33:08*
%MOMM*%
%LPD*%
G01*
G04 APERTURE LIST*
%ADD10C,0.200000*%
%ADD11C,0.150000*%
%ADD12C,0.120000*%
%ADD13C,0.127000*%
G04 APERTURE END LIST*
D10*
X98407142Y-118463571D02*
X98407142Y-119677857D01*
X98335714Y-119820714D01*
X98264285Y-119892142D01*
X98121428Y-119963571D01*
X97907142Y-119963571D01*
X97764285Y-119892142D01*
X98407142Y-119392142D02*
X98264285Y-119463571D01*
X97978571Y-119463571D01*
X97835714Y-119392142D01*
X97764285Y-119320714D01*
X97692857Y-119177857D01*
X97692857Y-118749285D01*
X97764285Y-118606428D01*
X97835714Y-118535000D01*
X97978571Y-118463571D01*
X98264285Y-118463571D01*
X98407142Y-118535000D01*
X99121428Y-119463571D02*
X99121428Y-118463571D01*
X99121428Y-117963571D02*
X99050000Y-118035000D01*
X99121428Y-118106428D01*
X99192857Y-118035000D01*
X99121428Y-117963571D01*
X99121428Y-118106428D01*
X100478571Y-118463571D02*
X100478571Y-119677857D01*
X100407142Y-119820714D01*
X100335714Y-119892142D01*
X100192857Y-119963571D01*
X99978571Y-119963571D01*
X99835714Y-119892142D01*
X100478571Y-119392142D02*
X100335714Y-119463571D01*
X100050000Y-119463571D01*
X99907142Y-119392142D01*
X99835714Y-119320714D01*
X99764285Y-119177857D01*
X99764285Y-118749285D01*
X99835714Y-118606428D01*
X99907142Y-118535000D01*
X100050000Y-118463571D01*
X100335714Y-118463571D01*
X100478571Y-118535000D01*
X100835714Y-119606428D02*
X101978571Y-119606428D01*
X102335714Y-118677857D02*
X102835714Y-118677857D01*
X103050000Y-119463571D02*
X102335714Y-119463571D01*
X102335714Y-117963571D01*
X103050000Y-117963571D01*
X92514285Y-121878571D02*
X92514285Y-120878571D01*
X92514285Y-121021428D02*
X92585714Y-120950000D01*
X92728571Y-120878571D01*
X92942857Y-120878571D01*
X93085714Y-120950000D01*
X93157142Y-121092857D01*
X93157142Y-121878571D01*
X93157142Y-121092857D02*
X93228571Y-120950000D01*
X93371428Y-120878571D01*
X93585714Y-120878571D01*
X93728571Y-120950000D01*
X93800000Y-121092857D01*
X93800000Y-121878571D01*
X95157142Y-121878571D02*
X95157142Y-121092857D01*
X95085714Y-120950000D01*
X94942857Y-120878571D01*
X94657142Y-120878571D01*
X94514285Y-120950000D01*
X95157142Y-121807142D02*
X95014285Y-121878571D01*
X94657142Y-121878571D01*
X94514285Y-121807142D01*
X94442857Y-121664285D01*
X94442857Y-121521428D01*
X94514285Y-121378571D01*
X94657142Y-121307142D01*
X95014285Y-121307142D01*
X95157142Y-121235714D01*
X95871428Y-121878571D02*
X95871428Y-120878571D01*
X95871428Y-121164285D02*
X95942857Y-121021428D01*
X96014285Y-120950000D01*
X96157142Y-120878571D01*
X96300000Y-120878571D01*
X96728571Y-121807142D02*
X96871428Y-121878571D01*
X97157142Y-121878571D01*
X97300000Y-121807142D01*
X97371428Y-121664285D01*
X97371428Y-121592857D01*
X97300000Y-121450000D01*
X97157142Y-121378571D01*
X96942857Y-121378571D01*
X96800000Y-121307142D01*
X96728571Y-121164285D01*
X96728571Y-121092857D01*
X96800000Y-120950000D01*
X96942857Y-120878571D01*
X97157142Y-120878571D01*
X97300000Y-120950000D01*
X98228571Y-121878571D02*
X98085714Y-121807142D01*
X98014285Y-121735714D01*
X97942857Y-121592857D01*
X97942857Y-121164285D01*
X98014285Y-121021428D01*
X98085714Y-120950000D01*
X98228571Y-120878571D01*
X98442857Y-120878571D01*
X98585714Y-120950000D01*
X98657142Y-121021428D01*
X98728571Y-121164285D01*
X98728571Y-121592857D01*
X98657142Y-121735714D01*
X98585714Y-121807142D01*
X98442857Y-121878571D01*
X98228571Y-121878571D01*
X99371428Y-121878571D02*
X99371428Y-120378571D01*
X100014285Y-121878571D02*
X100014285Y-121092857D01*
X99942857Y-120950000D01*
X99800000Y-120878571D01*
X99585714Y-120878571D01*
X99442857Y-120950000D01*
X99371428Y-121021428D01*
X100942857Y-121878571D02*
X100800000Y-121807142D01*
X100728571Y-121735714D01*
X100657142Y-121592857D01*
X100657142Y-121164285D01*
X100728571Y-121021428D01*
X100800000Y-120950000D01*
X100942857Y-120878571D01*
X101157142Y-120878571D01*
X101300000Y-120950000D01*
X101371428Y-121021428D01*
X101442857Y-121164285D01*
X101442857Y-121592857D01*
X101371428Y-121735714D01*
X101300000Y-121807142D01*
X101157142Y-121878571D01*
X100942857Y-121878571D01*
X102728571Y-121878571D02*
X102728571Y-120378571D01*
X102728571Y-121807142D02*
X102585714Y-121878571D01*
X102300000Y-121878571D01*
X102157142Y-121807142D01*
X102085714Y-121735714D01*
X102014285Y-121592857D01*
X102014285Y-121164285D01*
X102085714Y-121021428D01*
X102157142Y-120950000D01*
X102300000Y-120878571D01*
X102585714Y-120878571D01*
X102728571Y-120950000D01*
X103442857Y-121735714D02*
X103514285Y-121807142D01*
X103442857Y-121878571D01*
X103371428Y-121807142D01*
X103442857Y-121735714D01*
X103442857Y-121878571D01*
X104371428Y-121878571D02*
X104228571Y-121807142D01*
X104157142Y-121735714D01*
X104085714Y-121592857D01*
X104085714Y-121164285D01*
X104157142Y-121021428D01*
X104228571Y-120950000D01*
X104371428Y-120878571D01*
X104585714Y-120878571D01*
X104728571Y-120950000D01*
X104800000Y-121021428D01*
X104871428Y-121164285D01*
X104871428Y-121592857D01*
X104800000Y-121735714D01*
X104728571Y-121807142D01*
X104585714Y-121878571D01*
X104371428Y-121878571D01*
X105514285Y-121878571D02*
X105514285Y-120878571D01*
X105514285Y-121164285D02*
X105585714Y-121021428D01*
X105657142Y-120950000D01*
X105800000Y-120878571D01*
X105942857Y-120878571D01*
X107085714Y-120878571D02*
X107085714Y-122092857D01*
X107014285Y-122235714D01*
X106942857Y-122307142D01*
X106800000Y-122378571D01*
X106585714Y-122378571D01*
X106442857Y-122307142D01*
X107085714Y-121807142D02*
X106942857Y-121878571D01*
X106657142Y-121878571D01*
X106514285Y-121807142D01*
X106442857Y-121735714D01*
X106371428Y-121592857D01*
X106371428Y-121164285D01*
X106442857Y-121021428D01*
X106514285Y-120950000D01*
X106657142Y-120878571D01*
X106942857Y-120878571D01*
X107085714Y-120950000D01*
X97800000Y-122936428D02*
X97871428Y-122865000D01*
X98014285Y-122793571D01*
X98371428Y-122793571D01*
X98514285Y-122865000D01*
X98585714Y-122936428D01*
X98657142Y-123079285D01*
X98657142Y-123222142D01*
X98585714Y-123436428D01*
X97728571Y-124293571D01*
X98657142Y-124293571D01*
X99585714Y-122793571D02*
X99728571Y-122793571D01*
X99871428Y-122865000D01*
X99942857Y-122936428D01*
X100014285Y-123079285D01*
X100085714Y-123365000D01*
X100085714Y-123722142D01*
X100014285Y-124007857D01*
X99942857Y-124150714D01*
X99871428Y-124222142D01*
X99728571Y-124293571D01*
X99585714Y-124293571D01*
X99442857Y-124222142D01*
X99371428Y-124150714D01*
X99300000Y-124007857D01*
X99228571Y-123722142D01*
X99228571Y-123365000D01*
X99300000Y-123079285D01*
X99371428Y-122936428D01*
X99442857Y-122865000D01*
X99585714Y-122793571D01*
X100657142Y-122936428D02*
X100728571Y-122865000D01*
X100871428Y-122793571D01*
X101228571Y-122793571D01*
X101371428Y-122865000D01*
X101442857Y-122936428D01*
X101514285Y-123079285D01*
X101514285Y-123222142D01*
X101442857Y-123436428D01*
X100585714Y-124293571D01*
X101514285Y-124293571D01*
X102871428Y-122793571D02*
X102157142Y-122793571D01*
X102085714Y-123507857D01*
X102157142Y-123436428D01*
X102300000Y-123365000D01*
X102657142Y-123365000D01*
X102800000Y-123436428D01*
X102871428Y-123507857D01*
X102942857Y-123650714D01*
X102942857Y-124007857D01*
X102871428Y-124150714D01*
X102800000Y-124222142D01*
X102657142Y-124293571D01*
X102300000Y-124293571D01*
X102157142Y-124222142D01*
X102085714Y-124150714D01*
D11*
X81852380Y-124257142D02*
X80852380Y-124257142D01*
X80852380Y-123590476D02*
X80852380Y-123400000D01*
X80900000Y-123304761D01*
X80995238Y-123209523D01*
X81185714Y-123161904D01*
X81519047Y-123161904D01*
X81709523Y-123209523D01*
X81804761Y-123304761D01*
X81852380Y-123400000D01*
X81852380Y-123590476D01*
X81804761Y-123685714D01*
X81709523Y-123780952D01*
X81519047Y-123828571D01*
X81185714Y-123828571D01*
X80995238Y-123780952D01*
X80900000Y-123685714D01*
X80852380Y-123590476D01*
X81852380Y-121447619D02*
X81852380Y-122019047D01*
X81852380Y-121733333D02*
X80852380Y-121733333D01*
X80995238Y-121828571D01*
X81090476Y-121923809D01*
X81138095Y-122019047D01*
X80852380Y-121114285D02*
X80852380Y-120447619D01*
X81852380Y-120876190D01*
X84652380Y-124257142D02*
X83652380Y-124257142D01*
X83652380Y-123590476D02*
X83652380Y-123400000D01*
X83700000Y-123304761D01*
X83795238Y-123209523D01*
X83985714Y-123161904D01*
X84319047Y-123161904D01*
X84509523Y-123209523D01*
X84604761Y-123304761D01*
X84652380Y-123400000D01*
X84652380Y-123590476D01*
X84604761Y-123685714D01*
X84509523Y-123780952D01*
X84319047Y-123828571D01*
X83985714Y-123828571D01*
X83795238Y-123780952D01*
X83700000Y-123685714D01*
X83652380Y-123590476D01*
X84652380Y-121447619D02*
X84652380Y-122019047D01*
X84652380Y-121733333D02*
X83652380Y-121733333D01*
X83795238Y-121828571D01*
X83890476Y-121923809D01*
X83938095Y-122019047D01*
X84080952Y-120876190D02*
X84033333Y-120971428D01*
X83985714Y-121019047D01*
X83890476Y-121066666D01*
X83842857Y-121066666D01*
X83747619Y-121019047D01*
X83700000Y-120971428D01*
X83652380Y-120876190D01*
X83652380Y-120685714D01*
X83700000Y-120590476D01*
X83747619Y-120542857D01*
X83842857Y-120495238D01*
X83890476Y-120495238D01*
X83985714Y-120542857D01*
X84033333Y-120590476D01*
X84080952Y-120685714D01*
X84080952Y-120876190D01*
X84128571Y-120971428D01*
X84176190Y-121019047D01*
X84271428Y-121066666D01*
X84461904Y-121066666D01*
X84557142Y-121019047D01*
X84604761Y-120971428D01*
X84652380Y-120876190D01*
X84652380Y-120685714D01*
X84604761Y-120590476D01*
X84557142Y-120542857D01*
X84461904Y-120495238D01*
X84271428Y-120495238D01*
X84176190Y-120542857D01*
X84128571Y-120590476D01*
X84080952Y-120685714D01*
X54000000Y-141619047D02*
X54047619Y-141523809D01*
X54047619Y-141380952D01*
X54000000Y-141238095D01*
X53904761Y-141142857D01*
X53809523Y-141095238D01*
X53619047Y-141047619D01*
X53476190Y-141047619D01*
X53285714Y-141095238D01*
X53190476Y-141142857D01*
X53095238Y-141238095D01*
X53047619Y-141380952D01*
X53047619Y-141476190D01*
X53095238Y-141619047D01*
X53142857Y-141666666D01*
X53476190Y-141666666D01*
X53476190Y-141476190D01*
X53047619Y-142095238D02*
X54047619Y-142095238D01*
X53047619Y-142666666D01*
X54047619Y-142666666D01*
X53047619Y-143142857D02*
X54047619Y-143142857D01*
X54047619Y-143380952D01*
X54000000Y-143523809D01*
X53904761Y-143619047D01*
X53809523Y-143666666D01*
X53619047Y-143714285D01*
X53476190Y-143714285D01*
X53285714Y-143666666D01*
X53190476Y-143619047D01*
X53095238Y-143523809D01*
X53047619Y-143380952D01*
X53047619Y-143142857D01*
X87152380Y-124357142D02*
X86152380Y-124357142D01*
X86152380Y-123690476D02*
X86152380Y-123500000D01*
X86200000Y-123404761D01*
X86295238Y-123309523D01*
X86485714Y-123261904D01*
X86819047Y-123261904D01*
X87009523Y-123309523D01*
X87104761Y-123404761D01*
X87152380Y-123500000D01*
X87152380Y-123690476D01*
X87104761Y-123785714D01*
X87009523Y-123880952D01*
X86819047Y-123928571D01*
X86485714Y-123928571D01*
X86295238Y-123880952D01*
X86200000Y-123785714D01*
X86152380Y-123690476D01*
X87152380Y-121547619D02*
X87152380Y-122119047D01*
X87152380Y-121833333D02*
X86152380Y-121833333D01*
X86295238Y-121928571D01*
X86390476Y-122023809D01*
X86438095Y-122119047D01*
X87152380Y-121071428D02*
X87152380Y-120880952D01*
X87104761Y-120785714D01*
X87057142Y-120738095D01*
X86914285Y-120642857D01*
X86723809Y-120595238D01*
X86342857Y-120595238D01*
X86247619Y-120642857D01*
X86200000Y-120690476D01*
X86152380Y-120785714D01*
X86152380Y-120976190D01*
X86200000Y-121071428D01*
X86247619Y-121119047D01*
X86342857Y-121166666D01*
X86580952Y-121166666D01*
X86676190Y-121119047D01*
X86723809Y-121071428D01*
X86771428Y-120976190D01*
X86771428Y-120785714D01*
X86723809Y-120690476D01*
X86676190Y-120642857D01*
X86580952Y-120595238D01*
X79552380Y-124157142D02*
X78552380Y-124157142D01*
X78552380Y-123490476D02*
X78552380Y-123300000D01*
X78600000Y-123204761D01*
X78695238Y-123109523D01*
X78885714Y-123061904D01*
X79219047Y-123061904D01*
X79409523Y-123109523D01*
X79504761Y-123204761D01*
X79552380Y-123300000D01*
X79552380Y-123490476D01*
X79504761Y-123585714D01*
X79409523Y-123680952D01*
X79219047Y-123728571D01*
X78885714Y-123728571D01*
X78695238Y-123680952D01*
X78600000Y-123585714D01*
X78552380Y-123490476D01*
X79552380Y-121347619D02*
X79552380Y-121919047D01*
X79552380Y-121633333D02*
X78552380Y-121633333D01*
X78695238Y-121728571D01*
X78790476Y-121823809D01*
X78838095Y-121919047D01*
X78552380Y-120490476D02*
X78552380Y-120680952D01*
X78600000Y-120776190D01*
X78647619Y-120823809D01*
X78790476Y-120919047D01*
X78980952Y-120966666D01*
X79361904Y-120966666D01*
X79457142Y-120919047D01*
X79504761Y-120871428D01*
X79552380Y-120776190D01*
X79552380Y-120585714D01*
X79504761Y-120490476D01*
X79457142Y-120442857D01*
X79361904Y-120395238D01*
X79123809Y-120395238D01*
X79028571Y-120442857D01*
X78980952Y-120490476D01*
X78933333Y-120585714D01*
X78933333Y-120776190D01*
X78980952Y-120871428D01*
X79028571Y-120919047D01*
X79123809Y-120966666D01*
X88900000Y-122880952D02*
X88852380Y-122976190D01*
X88852380Y-123119047D01*
X88900000Y-123261904D01*
X88995238Y-123357142D01*
X89090476Y-123404761D01*
X89280952Y-123452380D01*
X89423809Y-123452380D01*
X89614285Y-123404761D01*
X89709523Y-123357142D01*
X89804761Y-123261904D01*
X89852380Y-123119047D01*
X89852380Y-123023809D01*
X89804761Y-122880952D01*
X89757142Y-122833333D01*
X89423809Y-122833333D01*
X89423809Y-123023809D01*
X89852380Y-122404761D02*
X88852380Y-122404761D01*
X89852380Y-121833333D01*
X88852380Y-121833333D01*
X89852380Y-121357142D02*
X88852380Y-121357142D01*
X88852380Y-121119047D01*
X88900000Y-120976190D01*
X88995238Y-120880952D01*
X89090476Y-120833333D01*
X89280952Y-120785714D01*
X89423809Y-120785714D01*
X89614285Y-120833333D01*
X89709523Y-120880952D01*
X89804761Y-120976190D01*
X89852380Y-121119047D01*
X89852380Y-121357142D01*
X53233333Y-130971428D02*
X53233333Y-131447619D01*
X52947619Y-130876190D02*
X53947619Y-131209523D01*
X52947619Y-131542857D01*
X52947619Y-131876190D02*
X53947619Y-131876190D01*
X53947619Y-132114285D01*
X53900000Y-132257142D01*
X53804761Y-132352380D01*
X53709523Y-132400000D01*
X53519047Y-132447619D01*
X53376190Y-132447619D01*
X53185714Y-132400000D01*
X53090476Y-132352380D01*
X52995238Y-132257142D01*
X52947619Y-132114285D01*
X52947619Y-131876190D01*
X53042857Y-133447619D02*
X52995238Y-133400000D01*
X52947619Y-133257142D01*
X52947619Y-133161904D01*
X52995238Y-133019047D01*
X53090476Y-132923809D01*
X53185714Y-132876190D01*
X53376190Y-132828571D01*
X53519047Y-132828571D01*
X53709523Y-132876190D01*
X53804761Y-132923809D01*
X53900000Y-133019047D01*
X53947619Y-133161904D01*
X53947619Y-133257142D01*
X53900000Y-133400000D01*
X53852380Y-133447619D01*
X52947619Y-133876190D02*
X53614285Y-133876190D01*
X53947619Y-133876190D02*
X53900000Y-133828571D01*
X53852380Y-133876190D01*
X53900000Y-133923809D01*
X53947619Y-133876190D01*
X53852380Y-133876190D01*
X53614285Y-134352380D02*
X52947619Y-134352380D01*
X53519047Y-134352380D02*
X53566666Y-134400000D01*
X53614285Y-134495238D01*
X53614285Y-134638095D01*
X53566666Y-134733333D01*
X53471428Y-134780952D01*
X52947619Y-134780952D01*
%TO.C,L1*%
X84333333Y-126852380D02*
X83857142Y-126852380D01*
X83857142Y-125852380D01*
X85190476Y-126852380D02*
X84619047Y-126852380D01*
X84904761Y-126852380D02*
X84904761Y-125852380D01*
X84809523Y-125995238D01*
X84714285Y-126090476D01*
X84619047Y-126138095D01*
%TO.C,U2*%
X55238095Y-118152380D02*
X55238095Y-118961904D01*
X55285714Y-119057142D01*
X55333333Y-119104761D01*
X55428571Y-119152380D01*
X55619047Y-119152380D01*
X55714285Y-119104761D01*
X55761904Y-119057142D01*
X55809523Y-118961904D01*
X55809523Y-118152380D01*
X56238095Y-118247619D02*
X56285714Y-118200000D01*
X56380952Y-118152380D01*
X56619047Y-118152380D01*
X56714285Y-118200000D01*
X56761904Y-118247619D01*
X56809523Y-118342857D01*
X56809523Y-118438095D01*
X56761904Y-118580952D01*
X56190476Y-119152380D01*
X56809523Y-119152380D01*
%TO.C,J5*%
X54966666Y-135952380D02*
X54966666Y-136666666D01*
X54919047Y-136809523D01*
X54823809Y-136904761D01*
X54680952Y-136952380D01*
X54585714Y-136952380D01*
X55919047Y-135952380D02*
X55442857Y-135952380D01*
X55395238Y-136428571D01*
X55442857Y-136380952D01*
X55538095Y-136333333D01*
X55776190Y-136333333D01*
X55871428Y-136380952D01*
X55919047Y-136428571D01*
X55966666Y-136523809D01*
X55966666Y-136761904D01*
X55919047Y-136857142D01*
X55871428Y-136904761D01*
X55776190Y-136952380D01*
X55538095Y-136952380D01*
X55442857Y-136904761D01*
X55395238Y-136857142D01*
%TO.C,J2*%
X58736666Y-128422380D02*
X58736666Y-129136666D01*
X58689047Y-129279523D01*
X58593809Y-129374761D01*
X58450952Y-129422380D01*
X58355714Y-129422380D01*
X59165238Y-128517619D02*
X59212857Y-128470000D01*
X59308095Y-128422380D01*
X59546190Y-128422380D01*
X59641428Y-128470000D01*
X59689047Y-128517619D01*
X59736666Y-128612857D01*
X59736666Y-128708095D01*
X59689047Y-128850952D01*
X59117619Y-129422380D01*
X59736666Y-129422380D01*
%TO.C,U1*%
X75138095Y-124752380D02*
X75138095Y-125561904D01*
X75185714Y-125657142D01*
X75233333Y-125704761D01*
X75328571Y-125752380D01*
X75519047Y-125752380D01*
X75614285Y-125704761D01*
X75661904Y-125657142D01*
X75709523Y-125561904D01*
X75709523Y-124752380D01*
X76709523Y-125752380D02*
X76138095Y-125752380D01*
X76423809Y-125752380D02*
X76423809Y-124752380D01*
X76328571Y-124895238D01*
X76233333Y-124990476D01*
X76138095Y-125038095D01*
%TO.C,C9*%
X56433333Y-128157142D02*
X56385714Y-128204761D01*
X56242857Y-128252380D01*
X56147619Y-128252380D01*
X56004761Y-128204761D01*
X55909523Y-128109523D01*
X55861904Y-128014285D01*
X55814285Y-127823809D01*
X55814285Y-127680952D01*
X55861904Y-127490476D01*
X55909523Y-127395238D01*
X56004761Y-127300000D01*
X56147619Y-127252380D01*
X56242857Y-127252380D01*
X56385714Y-127300000D01*
X56433333Y-127347619D01*
X56909523Y-128252380D02*
X57100000Y-128252380D01*
X57195238Y-128204761D01*
X57242857Y-128157142D01*
X57338095Y-128014285D01*
X57385714Y-127823809D01*
X57385714Y-127442857D01*
X57338095Y-127347619D01*
X57290476Y-127300000D01*
X57195238Y-127252380D01*
X57004761Y-127252380D01*
X56909523Y-127300000D01*
X56861904Y-127347619D01*
X56814285Y-127442857D01*
X56814285Y-127680952D01*
X56861904Y-127776190D01*
X56909523Y-127823809D01*
X57004761Y-127871428D01*
X57195238Y-127871428D01*
X57290476Y-127823809D01*
X57338095Y-127776190D01*
X57385714Y-127680952D01*
%TO.C,R4*%
X88952380Y-145366666D02*
X88476190Y-145700000D01*
X88952380Y-145938095D02*
X87952380Y-145938095D01*
X87952380Y-145557142D01*
X88000000Y-145461904D01*
X88047619Y-145414285D01*
X88142857Y-145366666D01*
X88285714Y-145366666D01*
X88380952Y-145414285D01*
X88428571Y-145461904D01*
X88476190Y-145557142D01*
X88476190Y-145938095D01*
X88285714Y-144509523D02*
X88952380Y-144509523D01*
X87904761Y-144747619D02*
X88619047Y-144985714D01*
X88619047Y-144366666D01*
%TO.C,C1*%
X88757142Y-129266666D02*
X88804761Y-129314285D01*
X88852380Y-129457142D01*
X88852380Y-129552380D01*
X88804761Y-129695238D01*
X88709523Y-129790476D01*
X88614285Y-129838095D01*
X88423809Y-129885714D01*
X88280952Y-129885714D01*
X88090476Y-129838095D01*
X87995238Y-129790476D01*
X87900000Y-129695238D01*
X87852380Y-129552380D01*
X87852380Y-129457142D01*
X87900000Y-129314285D01*
X87947619Y-129266666D01*
X88852380Y-128314285D02*
X88852380Y-128885714D01*
X88852380Y-128600000D02*
X87852380Y-128600000D01*
X87995238Y-128695238D01*
X88090476Y-128790476D01*
X88138095Y-128885714D01*
%TO.C,R2*%
X74033333Y-133252380D02*
X73700000Y-132776190D01*
X73461904Y-133252380D02*
X73461904Y-132252380D01*
X73842857Y-132252380D01*
X73938095Y-132300000D01*
X73985714Y-132347619D01*
X74033333Y-132442857D01*
X74033333Y-132585714D01*
X73985714Y-132680952D01*
X73938095Y-132728571D01*
X73842857Y-132776190D01*
X73461904Y-132776190D01*
X74414285Y-132347619D02*
X74461904Y-132300000D01*
X74557142Y-132252380D01*
X74795238Y-132252380D01*
X74890476Y-132300000D01*
X74938095Y-132347619D01*
X74985714Y-132442857D01*
X74985714Y-132538095D01*
X74938095Y-132680952D01*
X74366666Y-133252380D01*
X74985714Y-133252380D01*
%TO.C,C8*%
X56333333Y-129457142D02*
X56285714Y-129504761D01*
X56142857Y-129552380D01*
X56047619Y-129552380D01*
X55904761Y-129504761D01*
X55809523Y-129409523D01*
X55761904Y-129314285D01*
X55714285Y-129123809D01*
X55714285Y-128980952D01*
X55761904Y-128790476D01*
X55809523Y-128695238D01*
X55904761Y-128600000D01*
X56047619Y-128552380D01*
X56142857Y-128552380D01*
X56285714Y-128600000D01*
X56333333Y-128647619D01*
X56904761Y-128980952D02*
X56809523Y-128933333D01*
X56761904Y-128885714D01*
X56714285Y-128790476D01*
X56714285Y-128742857D01*
X56761904Y-128647619D01*
X56809523Y-128600000D01*
X56904761Y-128552380D01*
X57095238Y-128552380D01*
X57190476Y-128600000D01*
X57238095Y-128647619D01*
X57285714Y-128742857D01*
X57285714Y-128790476D01*
X57238095Y-128885714D01*
X57190476Y-128933333D01*
X57095238Y-128980952D01*
X56904761Y-128980952D01*
X56809523Y-129028571D01*
X56761904Y-129076190D01*
X56714285Y-129171428D01*
X56714285Y-129361904D01*
X56761904Y-129457142D01*
X56809523Y-129504761D01*
X56904761Y-129552380D01*
X57095238Y-129552380D01*
X57190476Y-129504761D01*
X57238095Y-129457142D01*
X57285714Y-129361904D01*
X57285714Y-129171428D01*
X57238095Y-129076190D01*
X57190476Y-129028571D01*
X57095238Y-128980952D01*
%TO.C,R3*%
X76233333Y-131252380D02*
X75900000Y-130776190D01*
X75661904Y-131252380D02*
X75661904Y-130252380D01*
X76042857Y-130252380D01*
X76138095Y-130300000D01*
X76185714Y-130347619D01*
X76233333Y-130442857D01*
X76233333Y-130585714D01*
X76185714Y-130680952D01*
X76138095Y-130728571D01*
X76042857Y-130776190D01*
X75661904Y-130776190D01*
X76566666Y-130252380D02*
X77185714Y-130252380D01*
X76852380Y-130633333D01*
X76995238Y-130633333D01*
X77090476Y-130680952D01*
X77138095Y-130728571D01*
X77185714Y-130823809D01*
X77185714Y-131061904D01*
X77138095Y-131157142D01*
X77090476Y-131204761D01*
X76995238Y-131252380D01*
X76709523Y-131252380D01*
X76614285Y-131204761D01*
X76566666Y-131157142D01*
%TO.C,J1*%
X103466666Y-126052380D02*
X103466666Y-126766666D01*
X103419047Y-126909523D01*
X103323809Y-127004761D01*
X103180952Y-127052380D01*
X103085714Y-127052380D01*
X104466666Y-127052380D02*
X103895238Y-127052380D01*
X104180952Y-127052380D02*
X104180952Y-126052380D01*
X104085714Y-126195238D01*
X103990476Y-126290476D01*
X103895238Y-126338095D01*
%TO.C,J6*%
X76247380Y-119033333D02*
X76961666Y-119033333D01*
X77104523Y-119080952D01*
X77199761Y-119176190D01*
X77247380Y-119319047D01*
X77247380Y-119414285D01*
X76247380Y-118128571D02*
X76247380Y-118319047D01*
X76295000Y-118414285D01*
X76342619Y-118461904D01*
X76485476Y-118557142D01*
X76675952Y-118604761D01*
X77056904Y-118604761D01*
X77152142Y-118557142D01*
X77199761Y-118509523D01*
X77247380Y-118414285D01*
X77247380Y-118223809D01*
X77199761Y-118128571D01*
X77152142Y-118080952D01*
X77056904Y-118033333D01*
X76818809Y-118033333D01*
X76723571Y-118080952D01*
X76675952Y-118128571D01*
X76628333Y-118223809D01*
X76628333Y-118414285D01*
X76675952Y-118509523D01*
X76723571Y-118557142D01*
X76818809Y-118604761D01*
%TO.C,R5*%
X89052380Y-136366666D02*
X88576190Y-136700000D01*
X89052380Y-136938095D02*
X88052380Y-136938095D01*
X88052380Y-136557142D01*
X88100000Y-136461904D01*
X88147619Y-136414285D01*
X88242857Y-136366666D01*
X88385714Y-136366666D01*
X88480952Y-136414285D01*
X88528571Y-136461904D01*
X88576190Y-136557142D01*
X88576190Y-136938095D01*
X88052380Y-135461904D02*
X88052380Y-135938095D01*
X88528571Y-135985714D01*
X88480952Y-135938095D01*
X88433333Y-135842857D01*
X88433333Y-135604761D01*
X88480952Y-135509523D01*
X88528571Y-135461904D01*
X88623809Y-135414285D01*
X88861904Y-135414285D01*
X88957142Y-135461904D01*
X89004761Y-135509523D01*
X89052380Y-135604761D01*
X89052380Y-135842857D01*
X89004761Y-135938095D01*
X88957142Y-135985714D01*
%TO.C,J4*%
X66766666Y-132652380D02*
X66766666Y-133366666D01*
X66719047Y-133509523D01*
X66623809Y-133604761D01*
X66480952Y-133652380D01*
X66385714Y-133652380D01*
X67671428Y-132985714D02*
X67671428Y-133652380D01*
X67433333Y-132604761D02*
X67195238Y-133319047D01*
X67814285Y-133319047D01*
%TO.C,J3*%
X84236666Y-128422380D02*
X84236666Y-129136666D01*
X84189047Y-129279523D01*
X84093809Y-129374761D01*
X83950952Y-129422380D01*
X83855714Y-129422380D01*
X84617619Y-128422380D02*
X85236666Y-128422380D01*
X84903333Y-128803333D01*
X85046190Y-128803333D01*
X85141428Y-128850952D01*
X85189047Y-128898571D01*
X85236666Y-128993809D01*
X85236666Y-129231904D01*
X85189047Y-129327142D01*
X85141428Y-129374761D01*
X85046190Y-129422380D01*
X84760476Y-129422380D01*
X84665238Y-129374761D01*
X84617619Y-129327142D01*
D12*
%TO.C,L1*%
X81523752Y-129110000D02*
X78751248Y-129110000D01*
X81523752Y-125690000D02*
X78751248Y-125690000D01*
%TO.C,U2*%
X52800000Y-119690000D02*
X58810000Y-119690000D01*
X55050000Y-126510000D02*
X58810000Y-126510000D01*
X58810000Y-126510000D02*
X58810000Y-125250000D01*
X58810000Y-119690000D02*
X58810000Y-120950000D01*
%TO.C,J5*%
X52070000Y-140455000D02*
X54730000Y-140455000D01*
X52070000Y-135255000D02*
X53400000Y-135255000D01*
X52070000Y-137855000D02*
X52070000Y-140455000D01*
X52070000Y-137855000D02*
X54730000Y-137855000D01*
X52070000Y-136585000D02*
X52070000Y-135255000D01*
X54730000Y-137855000D02*
X54730000Y-140455000D01*
%TO.C,J2*%
X59070000Y-129970000D02*
X61670000Y-129970000D01*
X56470000Y-129970000D02*
X57800000Y-129970000D01*
X56470000Y-132570000D02*
X56470000Y-147870000D01*
X56470000Y-147870000D02*
X61670000Y-147870000D01*
X56470000Y-131300000D02*
X56470000Y-129970000D01*
X56470000Y-132570000D02*
X59070000Y-132570000D01*
X61670000Y-129970000D02*
X61670000Y-147870000D01*
X59070000Y-132570000D02*
X59070000Y-129970000D01*
%TO.C,U1*%
X67520000Y-130490000D02*
X67520000Y-131040000D01*
X73740000Y-130490000D02*
X73740000Y-131040000D01*
X73740000Y-131040000D02*
X73190000Y-131040000D01*
X73740000Y-125370000D02*
X73740000Y-124820000D01*
X67520000Y-131040000D02*
X68070000Y-131040000D01*
X67520000Y-124820000D02*
X68070000Y-124820000D01*
X67520000Y-125370000D02*
X67520000Y-124820000D01*
%TO.C,C9*%
X54161252Y-128535000D02*
X53638748Y-128535000D01*
X54161252Y-127065000D02*
X53638748Y-127065000D01*
%TO.C,R4*%
X89335000Y-142827064D02*
X89335000Y-142372936D01*
X87865000Y-142827064D02*
X87865000Y-142372936D01*
%TO.C,C1*%
X89335000Y-131438748D02*
X89335000Y-131961252D01*
X87865000Y-131438748D02*
X87865000Y-131961252D01*
%TO.C,R2*%
X77127064Y-133435000D02*
X76672936Y-133435000D01*
X77127064Y-131965000D02*
X76672936Y-131965000D01*
%TO.C,C8*%
X54161252Y-129165000D02*
X53638748Y-129165000D01*
X54161252Y-130635000D02*
X53638748Y-130635000D01*
%TO.C,R3*%
X79227064Y-131435000D02*
X78772936Y-131435000D01*
X79227064Y-129965000D02*
X78772936Y-129965000D01*
D13*
%TO.C,J1*%
X106750000Y-137280000D02*
X106750000Y-149450000D01*
X90650000Y-137280000D02*
X90650000Y-149450000D01*
X106750000Y-128150000D02*
X106750000Y-133530000D01*
X106750000Y-128150000D02*
X90650000Y-128150000D01*
X90650000Y-149450000D02*
X106750000Y-149450000D01*
X90650000Y-128150000D02*
X90650000Y-133530000D01*
D10*
X90193000Y-129513000D02*
G75*
G03*
X90193000Y-129513000I-100000J0D01*
G01*
D12*
%TO.C,J6*%
X77795000Y-120030000D02*
X77795000Y-118700000D01*
X80395000Y-120030000D02*
X90615000Y-120030000D01*
X90615000Y-120030000D02*
X90615000Y-117370000D01*
X79125000Y-120030000D02*
X77795000Y-120030000D01*
X80395000Y-117370000D02*
X90615000Y-117370000D01*
X80395000Y-120030000D02*
X80395000Y-117370000D01*
%TO.C,R5*%
X89335000Y-139027064D02*
X89335000Y-138572936D01*
X87865000Y-139027064D02*
X87865000Y-138572936D01*
%TO.C,J4*%
X74000000Y-146150000D02*
X74000000Y-141350000D01*
X75560000Y-146150000D02*
X66440000Y-146150000D01*
X66440000Y-149460000D02*
X66440000Y-145850000D01*
X75560000Y-136850000D02*
X75560000Y-134540000D01*
X75560000Y-142850000D02*
X75560000Y-139850000D01*
X75560000Y-134540000D02*
X66440000Y-134540000D01*
X75560000Y-149460000D02*
X66440000Y-149460000D01*
X75560000Y-149460000D02*
X75560000Y-145850000D01*
X68000000Y-146150000D02*
X68000000Y-141350000D01*
X63740000Y-145610000D02*
X65640000Y-145610000D01*
X66440000Y-136850000D02*
X66440000Y-134540000D01*
X63740000Y-144270000D02*
X63740000Y-145610000D01*
X66440000Y-142850000D02*
X66440000Y-139850000D01*
X74000000Y-141350000D02*
G75*
G03*
X68000000Y-141350000I-3000000J0D01*
G01*
%TO.C,J3*%
X84570000Y-132570000D02*
X84570000Y-129970000D01*
X81970000Y-129970000D02*
X83300000Y-129970000D01*
X87170000Y-129970000D02*
X87170000Y-147870000D01*
X81970000Y-132570000D02*
X84570000Y-132570000D01*
X81970000Y-131300000D02*
X81970000Y-129970000D01*
X84570000Y-129970000D02*
X87170000Y-129970000D01*
X81970000Y-147870000D02*
X87170000Y-147870000D01*
X81970000Y-132570000D02*
X81970000Y-147870000D01*
%TD*%
M02*
