M48
; DRILL file {KiCad (6.0.11)} date Thu Mar 13 12:33:18 2025
; FORMAT={-:-/ absolute / inch / decimal}
; #@! TF.CreationDate,2025-03-13T12:33:18+04:00
; #@! TF.GenerationSoftware,Kicad,Pcbnew,(6.0.11)
; #@! TF.FileFunction,Plated,1,2,PTH
FMAT,2
INCH
; #@! TA.AperFunction,Plated,PTH,ViaDrill
T1C0.0157
; #@! TA.AperFunction,Plated,PTH,ComponentDrill
T2C0.0350
; #@! TA.AperFunction,Plated,PTH,ComponentDrill
T3C0.0354
; #@! TA.AperFunction,Plated,PTH,ComponentDrill
T4C0.0394
; #@! TA.AperFunction,Plated,PTH,ComponentDrill
T5C0.0402
; #@! TA.AperFunction,Plated,PTH,ComponentDrill
T6C0.0642
; #@! TA.AperFunction,Plated,PTH,ComponentDrill
T7C0.0787
%
G90
G05
T1
X2.6024Y-4.8504
X2.6024Y-4.8858
X2.6034Y-4.9705
X2.6185Y-5.0762
X2.635Y-4.8295
X2.7291Y-4.8653
X2.7562Y-5.2205
X2.7902Y-4.8295
X2.8504Y-4.8661
X2.9016Y-5.15
X2.9397Y-5.1666
X2.9606Y-4.9989
X2.961Y-5.091
X2.9614Y-5.0524
X3.1378Y-5.2283
X3.1742Y-5.241
X3.811Y-5.0149
X3.8583Y-5.0157
T2
X3.6606Y-5.1039
X3.711Y-5.2039
X3.7606Y-5.1039
X3.811Y-5.2039
X3.8606Y-5.1039
X3.911Y-5.2039
X3.9606Y-5.1039
X4.011Y-5.2039
X4.0606Y-5.1039
X4.111Y-5.2039
T3
X2.7276Y-4.9835
X2.7276Y-5.0898
X2.8339Y-4.9835
X2.8339Y-5.0898
T4
X2.1024Y-5.3774
X2.1024Y-5.4774
X2.2756Y-5.1693
X2.2756Y-5.2693
X2.2756Y-5.3693
X2.2756Y-5.4693
X2.2756Y-5.5693
X2.2756Y-5.6693
X2.2756Y-5.7693
X2.3756Y-5.1693
X2.3756Y-5.2693
X2.3756Y-5.3693
X2.3756Y-5.4693
X2.3756Y-5.5693
X2.3756Y-5.6693
X2.3756Y-5.7693
X3.1152Y-4.6732
X3.2152Y-4.6732
X3.2795Y-5.1693
X3.2795Y-5.2693
X3.2795Y-5.3693
X3.2795Y-5.4693
X3.2795Y-5.5693
X3.2795Y-5.6693
X3.2795Y-5.7693
X3.3152Y-4.6732
X3.3795Y-5.1693
X3.3795Y-5.2693
X3.3795Y-5.3693
X3.3795Y-5.4693
X3.3795Y-5.5693
X3.3795Y-5.6693
X3.3795Y-5.7693
X3.4152Y-4.6732
X3.5152Y-4.6732
T5
X3.625Y-5.6469
X3.725Y-5.6469
X4.0467Y-5.6469
X4.1467Y-5.6469
T6
X3.5809Y-5.3339
X4.1907Y-5.3339
T7
X2.7807Y-5.0366
T0
M30
