%TF.GenerationSoftware,KiCad,Pcbnew,(6.0.11)*%
%TF.CreationDate,2025-03-13T12:33:08+04:00*%
%TF.ProjectId,gig_E,6769675f-452e-46b6-9963-61645f706362,rev?*%
%TF.SameCoordinates,Original*%
%TF.FileFunction,Copper,L1,Top*%
%TF.FilePolarity,Positive*%
%FSLAX46Y46*%
G04 Gerber Fmt 4.6, Leading zero omitted, Abs format (unit mm)*
G04 Created by KiCad (PCBNEW (6.0.11)) date 2025-03-13 12:33:08*
%MOMM*%
%LPD*%
G01*
G04 APERTURE LIST*
G04 Aperture macros list*
%AMRoundRect*
0 Rectangle with rounded corners*
0 $1 Rounding radius*
0 $2 $3 $4 $5 $6 $7 $8 $9 X,Y pos of 4 corners*
0 Add a 4 corners polygon primitive as box body*
4,1,4,$2,$3,$4,$5,$6,$7,$8,$9,$2,$3,0*
0 Add four circle primitives for the rounded corners*
1,1,$1+$1,$2,$3*
1,1,$1+$1,$4,$5*
1,1,$1+$1,$6,$7*
1,1,$1+$1,$8,$9*
0 Add four rect primitives between the rounded corners*
20,1,$1+$1,$2,$3,$4,$5,0*
20,1,$1+$1,$4,$5,$6,$7,0*
20,1,$1+$1,$6,$7,$8,$9,0*
20,1,$1+$1,$8,$9,$2,$3,0*%
G04 Aperture macros list end*
%TA.AperFunction,NonConductor*%
%ADD10C,0.200000*%
%TD*%
%TA.AperFunction,SMDPad,CuDef*%
%ADD11RoundRect,0.250000X0.312500X1.450000X-0.312500X1.450000X-0.312500X-1.450000X0.312500X-1.450000X0*%
%TD*%
%TA.AperFunction,SMDPad,CuDef*%
%ADD12R,2.000000X1.500000*%
%TD*%
%TA.AperFunction,SMDPad,CuDef*%
%ADD13R,2.000000X3.800000*%
%TD*%
%TA.AperFunction,ComponentPad*%
%ADD14R,1.700000X1.700000*%
%TD*%
%TA.AperFunction,ComponentPad*%
%ADD15O,1.700000X1.700000*%
%TD*%
%TA.AperFunction,SMDPad,CuDef*%
%ADD16RoundRect,0.050000X-0.050000X0.350000X-0.050000X-0.350000X0.050000X-0.350000X0.050000X0.350000X0*%
%TD*%
%TA.AperFunction,SMDPad,CuDef*%
%ADD17RoundRect,0.050000X-0.350000X0.050000X-0.350000X-0.050000X0.350000X-0.050000X0.350000X0.050000X0*%
%TD*%
%TA.AperFunction,ComponentPad*%
%ADD18C,1.600000*%
%TD*%
%TA.AperFunction,SMDPad,CuDef*%
%ADD19R,4.300000X4.300000*%
%TD*%
%TA.AperFunction,ComponentPad*%
%ADD20C,2.500000*%
%TD*%
%TA.AperFunction,SMDPad,CuDef*%
%ADD21RoundRect,0.250000X0.337500X0.475000X-0.337500X0.475000X-0.337500X-0.475000X0.337500X-0.475000X0*%
%TD*%
%TA.AperFunction,SMDPad,CuDef*%
%ADD22RoundRect,0.250000X0.450000X-0.350000X0.450000X0.350000X-0.450000X0.350000X-0.450000X-0.350000X0*%
%TD*%
%TA.AperFunction,SMDPad,CuDef*%
%ADD23RoundRect,0.250000X-0.475000X0.337500X-0.475000X-0.337500X0.475000X-0.337500X0.475000X0.337500X0*%
%TD*%
%TA.AperFunction,SMDPad,CuDef*%
%ADD24RoundRect,0.250000X0.350000X0.450000X-0.350000X0.450000X-0.350000X-0.450000X0.350000X-0.450000X0*%
%TD*%
%TA.AperFunction,ComponentPad*%
%ADD25R,1.398000X1.398000*%
%TD*%
%TA.AperFunction,ComponentPad*%
%ADD26C,1.398000*%
%TD*%
%TA.AperFunction,ComponentPad*%
%ADD27C,1.530000*%
%TD*%
%TA.AperFunction,ComponentPad*%
%ADD28C,2.445000*%
%TD*%
%TA.AperFunction,SMDPad,CuDef*%
%ADD29R,3.000000X2.000000*%
%TD*%
%TA.AperFunction,ViaPad*%
%ADD30C,0.800000*%
%TD*%
%TA.AperFunction,Conductor*%
%ADD31C,0.200000*%
%TD*%
%TA.AperFunction,Conductor*%
%ADD32C,0.500000*%
%TD*%
%TA.AperFunction,Conductor*%
%ADD33C,0.400000*%
%TD*%
%TA.AperFunction,Conductor*%
%ADD34C,1.000000*%
%TD*%
%TA.AperFunction,Conductor*%
%ADD35C,2.000000*%
%TD*%
G04 APERTURE END LIST*
D10*
G36*
X63400000Y-126200000D02*
G01*
X56400000Y-126200000D01*
X56400000Y-119950000D01*
X63400000Y-119950000D01*
X63400000Y-126200000D01*
G37*
X63400000Y-126200000D02*
X56400000Y-126200000D01*
X56400000Y-119950000D01*
X63400000Y-119950000D01*
X63400000Y-126200000D01*
D11*
%TO.P,L1,1,1*%
%TO.N,/INDUCTOR*%
X82275000Y-127400000D03*
%TO.P,L1,2,2*%
%TO.N,/+1v*%
X78000000Y-127400000D03*
%TD*%
D12*
%TO.P,U2,1,GND*%
%TO.N,GND*%
X53750000Y-120800000D03*
%TO.P,U2,2,VO*%
%TO.N,VCC*%
X53750000Y-123100000D03*
%TO.P,U2,3,VI*%
%TO.N,+5V*%
X53750000Y-125400000D03*
D13*
%TO.P,U2,4*%
%TO.N,N/C*%
X60050000Y-123100000D03*
%TD*%
D14*
%TO.P,J5,1,Pin_1*%
%TO.N,/ANALOG_IN*%
X53400000Y-136585000D03*
D15*
%TO.P,J5,2,Pin_2*%
%TO.N,GND*%
X53400000Y-139125000D03*
%TD*%
D14*
%TO.P,J2,1,Pin_1*%
%TO.N,/ANALOG_IN*%
X57800000Y-131300000D03*
D15*
%TO.P,J2,2,Pin_2*%
%TO.N,+5V*%
X60340000Y-131300000D03*
%TO.P,J2,3,Pin_3*%
%TO.N,unconnected-(J2-Pad3)*%
X57800000Y-133840000D03*
%TO.P,J2,4,Pin_4*%
%TO.N,unconnected-(J2-Pad4)*%
X60340000Y-133840000D03*
%TO.P,J2,5,Pin_5*%
%TO.N,/IO0*%
X57800000Y-136380000D03*
%TO.P,J2,6,Pin_6*%
%TO.N,/IO1*%
X60340000Y-136380000D03*
%TO.P,J2,7,Pin_7*%
%TO.N,/IO2*%
X57800000Y-138920000D03*
%TO.P,J2,8,Pin_8*%
%TO.N,/IO3*%
X60340000Y-138920000D03*
%TO.P,J2,9,Pin_9*%
%TO.N,/IO4*%
X57800000Y-141460000D03*
%TO.P,J2,10,Pin_10*%
%TO.N,/IO5*%
X60340000Y-141460000D03*
%TO.P,J2,11,Pin_11*%
%TO.N,/IO6*%
X57800000Y-144000000D03*
%TO.P,J2,12,Pin_12*%
%TO.N,/IO7*%
X60340000Y-144000000D03*
%TO.P,J2,13,Pin_13*%
%TO.N,GND*%
X57800000Y-146540000D03*
%TO.P,J2,14,Pin_14*%
X60340000Y-146540000D03*
%TD*%
D16*
%TO.P,U1,1,MDIP0*%
%TO.N,/0+*%
X72830000Y-124980000D03*
%TO.P,U1,2,MDIN0*%
%TO.N,/0-*%
X72430000Y-124980000D03*
%TO.P,U1,3,AVDD10*%
%TO.N,/+1v*%
X72030000Y-124980000D03*
%TO.P,U1,4,MDIP1*%
%TO.N,/1+*%
X71630000Y-124980000D03*
%TO.P,U1,5,MDIN1*%
%TO.N,/1-*%
X71230000Y-124980000D03*
%TO.P,U1,6,AVDD33*%
%TO.N,VCC*%
X70830000Y-124980000D03*
%TO.P,U1,7,MDIP2*%
%TO.N,/2+*%
X70430000Y-124980000D03*
%TO.P,U1,8,MDIN2*%
%TO.N,/2-*%
X70030000Y-124980000D03*
%TO.P,U1,9,AVDD10*%
%TO.N,/+1v*%
X69630000Y-124980000D03*
%TO.P,U1,10,MDIP3*%
%TO.N,/3+*%
X69230000Y-124980000D03*
%TO.P,U1,11,MDIN3*%
%TO.N,/3-*%
X68830000Y-124980000D03*
%TO.P,U1,12*%
%TO.N,N/C*%
X68430000Y-124980000D03*
D17*
%TO.P,U1,13,RXCTL*%
%TO.N,/IO0*%
X67680000Y-125730000D03*
%TO.P,U1,14,RXD0*%
%TO.N,/IO2*%
X67680000Y-126130000D03*
%TO.P,U1,15,DVDD33*%
%TO.N,VCC*%
X67680000Y-126530000D03*
%TO.P,U1,16,RXD1/TXDLY*%
%TO.N,/IO1*%
X67680000Y-126930000D03*
%TO.P,U1,17,RXD2/AN0*%
%TO.N,/IO3*%
X67680000Y-127330000D03*
%TO.P,U1,18,RXD3/AN1*%
%TO.N,/IO4*%
X67680000Y-127730000D03*
%TO.P,U1,19,RXC*%
%TO.N,/IO5*%
X67680000Y-128130000D03*
%TO.P,U1,20,INT*%
%TO.N,unconnected-(U1-Pad20)*%
X67680000Y-128530000D03*
%TO.P,U1,21,DVDD33*%
%TO.N,VCC*%
X67680000Y-128930000D03*
%TO.P,U1,22,TXC*%
%TO.N,/IO6*%
X67680000Y-129330000D03*
%TO.P,U1,23,TXD0*%
%TO.N,/IO7*%
X67680000Y-129730000D03*
%TO.P,U1,24,TXD1*%
%TO.N,/IO8*%
X67680000Y-130130000D03*
D16*
%TO.P,U1,25,TXD2*%
%TO.N,/IO9*%
X68430000Y-130880000D03*
%TO.P,U1,26,TXD3*%
%TO.N,/IO10*%
X68830000Y-130880000D03*
%TO.P,U1,27,TXCTL*%
%TO.N,/IO11*%
X69230000Y-130880000D03*
%TO.P,U1,28,DVDD10*%
%TO.N,/+1v*%
X69630000Y-130880000D03*
%TO.P,U1,29,PHYRSTB*%
%TO.N,/IO12*%
X70030000Y-130880000D03*
%TO.P,U1,30,MDC*%
%TO.N,/IO13*%
X70430000Y-130880000D03*
%TO.P,U1,31,MDIO*%
%TO.N,/IO14*%
X70830000Y-130880000D03*
%TO.P,U1,32,LED2/RXDLY*%
%TO.N,unconnected-(U1-Pad32)*%
X71230000Y-130880000D03*
%TO.P,U1,33,PME*%
%TO.N,unconnected-(U1-Pad33)*%
X71630000Y-130880000D03*
%TO.P,U1,34,LED0/PHY_AD0*%
%TO.N,Net-(R4-Pad2)*%
X72030000Y-130880000D03*
%TO.P,U1,35,LED1/PHY_AD1*%
%TO.N,Net-(R5-Pad2)*%
X72430000Y-130880000D03*
%TO.P,U1,36,DVDD10*%
%TO.N,/+1v*%
X72830000Y-130880000D03*
D17*
%TO.P,U1,37,DVDD33*%
%TO.N,VCC*%
X73580000Y-130130000D03*
%TO.P,U1,38,ENSWREG*%
%TO.N,/ENSWREG*%
X73580000Y-129730000D03*
%TO.P,U1,39,RSET*%
%TO.N,Net-(R3-Pad2)*%
X73580000Y-129330000D03*
%TO.P,U1,40,AVDD10*%
%TO.N,/+1v*%
X73580000Y-128930000D03*
%TO.P,U1,41,AVDD33*%
%TO.N,VCC*%
X73580000Y-128530000D03*
%TO.P,U1,42,CKXTAL1*%
%TO.N,/IO15*%
X73580000Y-128130000D03*
%TO.P,U1,43,CKXTAL2*%
%TO.N,unconnected-(U1-Pad43)*%
X73580000Y-127730000D03*
%TO.P,U1,44,VDDREG*%
%TO.N,VCC*%
X73580000Y-127330000D03*
%TO.P,U1,45,VDDREG*%
X73580000Y-126930000D03*
%TO.P,U1,46,CLK125*%
%TO.N,unconnected-(U1-Pad46)*%
X73580000Y-126530000D03*
%TO.P,U1,47,GND*%
%TO.N,GND*%
X73580000Y-126130000D03*
%TO.P,U1,48,REG_OUT*%
%TO.N,/INDUCTOR*%
X73580000Y-125730000D03*
D18*
%TO.P,U1,49,GND*%
%TO.N,GND*%
X69280000Y-126580000D03*
X71980000Y-126580000D03*
D19*
X70630000Y-127930000D03*
D18*
X71980000Y-129280000D03*
X69280000Y-129280000D03*
D20*
X70630000Y-127930000D03*
%TD*%
D21*
%TO.P,C9,1*%
%TO.N,+5V*%
X54937500Y-127800000D03*
%TO.P,C9,2*%
%TO.N,GND*%
X52862500Y-127800000D03*
%TD*%
D22*
%TO.P,R4,1*%
%TO.N,/LED0*%
X88600000Y-143600000D03*
%TO.P,R4,2*%
%TO.N,Net-(R4-Pad2)*%
X88600000Y-141600000D03*
%TD*%
D23*
%TO.P,C1,1*%
%TO.N,Net-(C1-Pad1)*%
X88600000Y-130662500D03*
%TO.P,C1,2*%
%TO.N,GND*%
X88600000Y-132737500D03*
%TD*%
D24*
%TO.P,R2,1*%
%TO.N,/ENSWREG*%
X77900000Y-132700000D03*
%TO.P,R2,2*%
%TO.N,VCC*%
X75900000Y-132700000D03*
%TD*%
D21*
%TO.P,C8,1*%
%TO.N,+5V*%
X54937500Y-129900000D03*
%TO.P,C8,2*%
%TO.N,GND*%
X52862500Y-129900000D03*
%TD*%
D24*
%TO.P,R3,1*%
%TO.N,GND*%
X80000000Y-130700000D03*
%TO.P,R3,2*%
%TO.N,Net-(R3-Pad2)*%
X78000000Y-130700000D03*
%TD*%
D25*
%TO.P,J1,1,P1*%
%TO.N,Net-(C1-Pad1)*%
X92980000Y-129640000D03*
D26*
%TO.P,J1,2,0+*%
%TO.N,/0+*%
X94260000Y-132180000D03*
%TO.P,J1,3,0-*%
%TO.N,/0-*%
X95520000Y-129640000D03*
%TO.P,J1,4,1+*%
%TO.N,/1+*%
X96800000Y-132180000D03*
%TO.P,J1,5,2+*%
%TO.N,/2+*%
X98060000Y-129640000D03*
%TO.P,J1,6,2-*%
%TO.N,/2-*%
X99340000Y-132180000D03*
%TO.P,J1,7,1-*%
%TO.N,/1-*%
X100600000Y-129640000D03*
%TO.P,J1,8,3+*%
%TO.N,/3+*%
X101880000Y-132180000D03*
%TO.P,J1,9,3-*%
%TO.N,/3-*%
X103140000Y-129640000D03*
%TO.P,J1,10,P10*%
%TO.N,GND*%
X104420000Y-132180000D03*
D27*
%TO.P,J1,11*%
%TO.N,VCC*%
X92075000Y-143430000D03*
%TO.P,J1,12*%
%TO.N,/LED0*%
X94615000Y-143430000D03*
%TO.P,J1,13*%
%TO.N,GND*%
X102785000Y-143430000D03*
%TO.P,J1,14*%
%TO.N,/LED1*%
X105325000Y-143430000D03*
D28*
%TO.P,J1,S1,SHIELD*%
%TO.N,GND*%
X90955000Y-135480000D03*
%TO.P,J1,S2,SHIELD*%
X106445000Y-135480000D03*
%TD*%
D14*
%TO.P,J6,1,Pin_1*%
%TO.N,/IO16*%
X79125000Y-118700000D03*
D15*
%TO.P,J6,2,Pin_2*%
%TO.N,/IO17*%
X81665000Y-118700000D03*
%TO.P,J6,3,Pin_3*%
%TO.N,/IO18*%
X84205000Y-118700000D03*
%TO.P,J6,4,Pin_4*%
%TO.N,/IO19*%
X86745000Y-118700000D03*
%TO.P,J6,5,Pin_5*%
%TO.N,GND*%
X89285000Y-118700000D03*
%TD*%
D22*
%TO.P,R5,1*%
%TO.N,/LED1*%
X88600000Y-139800000D03*
%TO.P,R5,2*%
%TO.N,Net-(R5-Pad2)*%
X88600000Y-137800000D03*
%TD*%
D29*
%TO.P,J4,1*%
%TO.N,+5V*%
X65500000Y-138350000D03*
X65500000Y-144350000D03*
%TO.P,J4,2*%
%TO.N,GND*%
X76500000Y-138350000D03*
%TO.P,J4,3,MountPin*%
X76500000Y-144350000D03*
%TD*%
D14*
%TO.P,J3,1,Pin_1*%
%TO.N,/IO18*%
X83300000Y-131300000D03*
D15*
%TO.P,J3,2,Pin_2*%
%TO.N,/IO19*%
X85840000Y-131300000D03*
%TO.P,J3,3,Pin_3*%
%TO.N,/IO16*%
X83300000Y-133840000D03*
%TO.P,J3,4,Pin_4*%
%TO.N,/IO17*%
X85840000Y-133840000D03*
%TO.P,J3,5,Pin_5*%
%TO.N,/IO14*%
X83300000Y-136380000D03*
%TO.P,J3,6,Pin_6*%
%TO.N,/IO15*%
X85840000Y-136380000D03*
%TO.P,J3,7,Pin_7*%
%TO.N,/IO12*%
X83300000Y-138920000D03*
%TO.P,J3,8,Pin_8*%
%TO.N,/IO13*%
X85840000Y-138920000D03*
%TO.P,J3,9,Pin_9*%
%TO.N,/IO10*%
X83300000Y-141460000D03*
%TO.P,J3,10,Pin_10*%
%TO.N,/IO11*%
X85840000Y-141460000D03*
%TO.P,J3,11,Pin_11*%
%TO.N,/IO8*%
X83300000Y-144000000D03*
%TO.P,J3,12,Pin_12*%
%TO.N,/IO9*%
X85840000Y-144000000D03*
%TO.P,J3,13,Pin_13*%
%TO.N,GND*%
X83300000Y-146540000D03*
%TO.P,J3,14,Pin_14*%
X85840000Y-146540000D03*
%TD*%
D30*
%TO.N,/2+*%
X96800000Y-127379500D03*
%TO.N,/2-*%
X98000000Y-127400000D03*
%TO.N,VCC*%
X66100000Y-123200000D03*
X75218885Y-128331612D03*
X66930014Y-122669986D03*
X66126926Y-126250500D03*
X74669520Y-131230480D03*
X66509830Y-128935119D03*
X75200000Y-126972112D03*
X66100000Y-124100000D03*
X70869986Y-122669986D03*
%TO.N,GND*%
X79700000Y-132800000D03*
%TO.N,/IO15*%
X80625583Y-133120500D03*
%TO.N,/+1v*%
X70007267Y-132601587D03*
X75209431Y-129311069D03*
X69318223Y-123577979D03*
X72400000Y-123600000D03*
X73700000Y-130809500D03*
%TD*%
D31*
%TO.N,/LED0*%
X88600000Y-143600000D02*
X90125000Y-145125000D01*
X90125000Y-145125000D02*
X93190000Y-145125000D01*
X93190000Y-145125000D02*
X94615000Y-143700000D01*
%TO.N,/0+*%
X84900000Y-123800000D02*
X93550000Y-132450000D01*
X72830000Y-124980000D02*
X74010000Y-123800000D01*
X93550000Y-132450000D02*
X94260000Y-132450000D01*
X74010000Y-123800000D02*
X84900000Y-123800000D01*
%TO.N,/0-*%
X73561666Y-123400000D02*
X85100000Y-123400000D01*
X72681666Y-124280000D02*
X73561666Y-123400000D01*
X72620000Y-124280000D02*
X72681666Y-124280000D01*
X94010000Y-128400000D02*
X95520000Y-129910000D01*
X90100000Y-128400000D02*
X94010000Y-128400000D01*
X72430000Y-124980000D02*
X72430000Y-124470000D01*
X85100000Y-123400000D02*
X90100000Y-128400000D01*
X72430000Y-124470000D02*
X72620000Y-124280000D01*
%TO.N,/1+*%
X96800000Y-129300000D02*
X96800000Y-132450000D01*
X71630000Y-124980000D02*
X71630000Y-123408334D01*
X96442598Y-128980000D02*
X96480000Y-128980000D01*
X90362598Y-122900000D02*
X96442598Y-128980000D01*
X71630000Y-123408334D02*
X72138334Y-122900000D01*
X72138334Y-122900000D02*
X90362598Y-122900000D01*
X96480000Y-128980000D02*
X96800000Y-129300000D01*
X72138334Y-122900000D02*
X71610000Y-123428334D01*
X71610000Y-123428334D02*
X71610000Y-125000000D01*
%TO.N,/2+*%
X96179500Y-127379500D02*
X90789986Y-121989986D01*
X70588320Y-121989986D02*
X72689986Y-121989986D01*
X70430000Y-124980000D02*
X70430000Y-123191666D01*
X70189986Y-122951652D02*
X70189986Y-122388320D01*
X70189986Y-122388320D02*
X70588320Y-121989986D01*
X70430000Y-123191666D02*
X70189986Y-122951652D01*
X96800000Y-127379500D02*
X96179500Y-127379500D01*
X90789986Y-121989986D02*
X72689986Y-121989986D01*
X72689986Y-121989986D02*
X72700000Y-122000000D01*
%TO.N,/2-*%
X97300000Y-126700000D02*
X96037402Y-126700000D01*
X70440904Y-121600000D02*
X69809986Y-122230918D01*
X69809986Y-123109054D02*
X70030000Y-123329068D01*
X90937402Y-121600000D02*
X70440904Y-121600000D01*
X69809986Y-122230918D02*
X69809986Y-123109054D01*
X98000000Y-127400000D02*
X97300000Y-126700000D01*
X70030000Y-123329068D02*
X70030000Y-124980000D01*
X96037402Y-126700000D02*
X90937402Y-121600000D01*
%TO.N,/1-*%
X71230000Y-123270932D02*
X71980933Y-122520000D01*
X71230000Y-124980000D02*
X71230000Y-123270932D01*
X100100000Y-129368082D02*
X100100000Y-129410000D01*
X71980933Y-122520000D02*
X90520000Y-122520000D01*
X90520000Y-122520000D02*
X96600000Y-128600000D01*
X99331918Y-128600000D02*
X100100000Y-129368082D01*
X100100000Y-129410000D02*
X100600000Y-129910000D01*
X96600000Y-128600000D02*
X99331918Y-128600000D01*
%TO.N,/LED1*%
X93300000Y-143952854D02*
X93300000Y-143267146D01*
X94267146Y-142300000D02*
X103925000Y-142300000D01*
X93300000Y-143267146D02*
X94267146Y-142300000D01*
X92507854Y-144745000D02*
X93300000Y-143952854D01*
X90320000Y-141520000D02*
X90320000Y-143422854D01*
X88600000Y-139800000D02*
X90320000Y-141520000D01*
X91642146Y-144745000D02*
X92507854Y-144745000D01*
X103925000Y-142300000D02*
X105325000Y-143700000D01*
X90320000Y-143422854D02*
X91642146Y-144745000D01*
%TO.N,Net-(C1-Pad1)*%
X93879000Y-129910000D02*
X95400000Y-131431000D01*
X95400000Y-131431000D02*
X95400000Y-132700000D01*
X94800000Y-133300000D02*
X93500000Y-133300000D01*
X93500000Y-133300000D02*
X90862500Y-130662500D01*
X90862500Y-130662500D02*
X88600000Y-130662500D01*
X95400000Y-132700000D02*
X94800000Y-133300000D01*
X92980000Y-129910000D02*
X93879000Y-129910000D01*
%TO.N,/INDUCTOR*%
X74800000Y-124300000D02*
X80900000Y-124300000D01*
X73580000Y-125730000D02*
X73580000Y-125520000D01*
X73580000Y-125520000D02*
X74800000Y-124300000D01*
X82275000Y-125675000D02*
X82275000Y-127400000D01*
X80900000Y-124300000D02*
X82275000Y-125675000D01*
%TO.N,/3+*%
X101880000Y-129020000D02*
X101880000Y-132450000D01*
X94120000Y-121220000D02*
X101900000Y-129000000D01*
X68520000Y-122983502D02*
X70283502Y-121220000D01*
X69208578Y-124430000D02*
X68520000Y-123741422D01*
X70283502Y-121220000D02*
X94120000Y-121220000D01*
X101900000Y-129000000D02*
X101880000Y-129020000D01*
X69230000Y-124980000D02*
X69230000Y-124430000D01*
X68520000Y-123741422D02*
X68520000Y-122983502D01*
X69230000Y-124430000D02*
X69208578Y-124430000D01*
%TO.N,/3-*%
X68140000Y-123898823D02*
X68140000Y-122826100D01*
X94340000Y-120840000D02*
X102800000Y-129300000D01*
X70126101Y-120840000D02*
X94340000Y-120840000D01*
X68830000Y-124588824D02*
X68140000Y-123898823D01*
X68830000Y-124980000D02*
X68830000Y-124588824D01*
X68140000Y-122826100D02*
X70126101Y-120840000D01*
%TO.N,Net-(R3-Pad2)*%
X73580000Y-129330000D02*
X74267402Y-129330000D01*
X75937402Y-131000000D02*
X77600000Y-131000000D01*
X74267402Y-129330000D02*
X75937402Y-131000000D01*
D32*
%TO.N,+5V*%
X55137500Y-129600000D02*
X55137500Y-129737500D01*
X62550000Y-144450000D02*
X65500000Y-144450000D01*
X55137500Y-129737500D02*
X56500000Y-131100000D01*
X56500000Y-145000000D02*
X56800000Y-145300000D01*
X58640000Y-129600000D02*
X60340000Y-131300000D01*
X55137500Y-129600000D02*
X58640000Y-129600000D01*
D33*
X56800000Y-145300000D02*
X61700000Y-145300000D01*
D32*
X53750000Y-125400000D02*
X55137500Y-126787500D01*
D34*
X65500000Y-138450000D02*
X65500000Y-144450000D01*
D32*
X61700000Y-145300000D02*
X62550000Y-144450000D01*
X55137500Y-127700000D02*
X55137500Y-129600000D01*
X56500000Y-131100000D02*
X56500000Y-145000000D01*
X55137500Y-126787500D02*
X55137500Y-127700000D01*
D31*
%TO.N,Net-(R4-Pad2)*%
X74197403Y-134200000D02*
X81800000Y-134200000D01*
X81800000Y-134200000D02*
X82800000Y-135200000D01*
X87200000Y-138500000D02*
X87200000Y-140200000D01*
X85561938Y-137700000D02*
X86400000Y-137700000D01*
X84710000Y-136848062D02*
X85561938Y-137700000D01*
X86400000Y-137700000D02*
X87200000Y-138500000D01*
X87200000Y-140200000D02*
X88600000Y-141600000D01*
X82800000Y-135200000D02*
X83718062Y-135200000D01*
X84710000Y-136191938D02*
X84710000Y-136848062D01*
X72030000Y-132032597D02*
X74197403Y-134200000D01*
X72030000Y-130880000D02*
X72030000Y-132032597D01*
X83718062Y-135200000D02*
X84710000Y-136191938D01*
%TO.N,VCC*%
X73580000Y-128530000D02*
X75020497Y-128530000D01*
D32*
X66100000Y-123200000D02*
X66100000Y-124100000D01*
D31*
X77200000Y-124800000D02*
X79300000Y-124800000D01*
X73580000Y-126930000D02*
X75157888Y-126930000D01*
X74669520Y-131230480D02*
X74669520Y-130806922D01*
X66600000Y-129000000D02*
X66535119Y-128935119D01*
X75200000Y-126800000D02*
X77200000Y-124800000D01*
X75200000Y-126972112D02*
X75200000Y-126800000D01*
X75900000Y-132700000D02*
X75900000Y-132460960D01*
X80600000Y-126100000D02*
X80600000Y-128800000D01*
X87100000Y-130961938D02*
X87100000Y-132862598D01*
X67680000Y-128930000D02*
X66670000Y-128930000D01*
X75200000Y-127000000D02*
X75200000Y-126972112D01*
D32*
X60050000Y-123100000D02*
X66000000Y-123100000D01*
X66000000Y-123100000D02*
X66100000Y-123200000D01*
D31*
X90700000Y-138100000D02*
X90700000Y-142900000D01*
X75020497Y-128530000D02*
X75218885Y-128331612D01*
X79300000Y-124800000D02*
X80600000Y-126100000D01*
X90700000Y-142900000D02*
X91500000Y-143700000D01*
X81970000Y-130170000D02*
X86308062Y-130170000D01*
X74669520Y-130806922D02*
X73992598Y-130130000D01*
X75157888Y-126930000D02*
X75200000Y-126972112D01*
D32*
X66930014Y-122669986D02*
X66630014Y-122669986D01*
D31*
X70830000Y-122709972D02*
X70830000Y-124980000D01*
X66406426Y-126530000D02*
X67680000Y-126530000D01*
D32*
X66630014Y-122669986D02*
X66100000Y-123200000D01*
D31*
X66670000Y-128930000D02*
X66600000Y-129000000D01*
X87100000Y-132862598D02*
X88100000Y-133862598D01*
X88100000Y-135500000D02*
X90700000Y-138100000D01*
X88100000Y-133862598D02*
X88100000Y-135500000D01*
X75027888Y-126972112D02*
X75200000Y-126972112D01*
X86308062Y-130170000D02*
X87100000Y-130961938D01*
X91500000Y-143700000D02*
X92075000Y-143700000D01*
X80600000Y-128800000D02*
X81970000Y-130170000D01*
X66126926Y-126250500D02*
X66406426Y-126530000D01*
X75900000Y-132460960D02*
X74669520Y-131230480D01*
X66535119Y-128935119D02*
X66509830Y-128935119D01*
X73580000Y-127330000D02*
X74670000Y-127330000D01*
D32*
X53750000Y-123100000D02*
X60050000Y-123100000D01*
D31*
X70869986Y-122669986D02*
X70830000Y-122709972D01*
X73992598Y-130130000D02*
X73580000Y-130130000D01*
X74670000Y-127330000D02*
X75027888Y-126972112D01*
%TO.N,/IO0*%
X63900000Y-129900000D02*
X61090000Y-132710000D01*
X64920000Y-125958359D02*
X64920000Y-126876275D01*
X58930000Y-134670000D02*
X57800000Y-135800000D01*
X58930000Y-133371938D02*
X58930000Y-134670000D01*
X57800000Y-135800000D02*
X57800000Y-136380000D01*
X67650000Y-125700000D02*
X67200000Y-125700000D01*
X65687858Y-125190500D02*
X64920000Y-125958359D01*
X67680000Y-125730000D02*
X67650000Y-125700000D01*
X59591938Y-132710000D02*
X58930000Y-133371938D01*
X63900000Y-127896275D02*
X63900000Y-129900000D01*
X64920000Y-126876275D02*
X63900000Y-127896275D01*
X61090000Y-132710000D02*
X59591938Y-132710000D01*
X67200000Y-125700000D02*
X66690500Y-125190500D01*
X66690500Y-125190500D02*
X65687858Y-125190500D01*
%TO.N,/IO1*%
X64660000Y-130240000D02*
X61850000Y-133050000D01*
X61850000Y-134870000D02*
X60340000Y-136380000D01*
X64660000Y-128211079D02*
X64660000Y-130240000D01*
X65941079Y-126930000D02*
X64660000Y-128211079D01*
X61850000Y-133050000D02*
X61850000Y-134870000D01*
X67680000Y-126930000D02*
X65941079Y-126930000D01*
%TO.N,/IO2*%
X65300000Y-126115760D02*
X65300000Y-127033677D01*
X59210000Y-137510000D02*
X57800000Y-138920000D01*
X65300000Y-127033677D02*
X64280000Y-128053678D01*
X65845260Y-125570500D02*
X65300000Y-126115760D01*
X59210000Y-135390000D02*
X59210000Y-137510000D01*
X64280000Y-128053678D02*
X64280000Y-130057402D01*
X67680000Y-126130000D02*
X66968092Y-126130000D01*
X59630000Y-134970000D02*
X59210000Y-135390000D01*
X61470000Y-134308062D02*
X60808062Y-134970000D01*
X66408592Y-125570500D02*
X65845260Y-125570500D01*
X60808062Y-134970000D02*
X59630000Y-134970000D01*
X66968092Y-126130000D02*
X66408592Y-125570500D01*
X61470000Y-132867402D02*
X61470000Y-134308062D01*
X64280000Y-130057402D02*
X61470000Y-132867402D01*
%TO.N,/IO3*%
X61780000Y-135947794D02*
X61780000Y-138420000D01*
X65040000Y-132687794D02*
X61780000Y-135947794D01*
X61780000Y-138420000D02*
X61280000Y-138920000D01*
X67680000Y-127330000D02*
X66078480Y-127330000D01*
X66078480Y-127330000D02*
X65040000Y-128368480D01*
X61280000Y-138920000D02*
X60340000Y-138920000D01*
X65040000Y-128368480D02*
X65040000Y-132687794D01*
%TO.N,Net-(R5-Pad2)*%
X72430000Y-130880000D02*
X72430000Y-131895195D01*
X81570969Y-133800000D02*
X82660969Y-132710000D01*
X72430000Y-131895195D02*
X74334805Y-133800000D01*
X74334805Y-133800000D02*
X81570969Y-133800000D01*
X87700000Y-136900000D02*
X88600000Y-137800000D01*
X82660969Y-132710000D02*
X86410000Y-132710000D01*
X86410000Y-132710000D02*
X87700000Y-134000000D01*
X87700000Y-134000000D02*
X87700000Y-136900000D01*
%TO.N,/IO4*%
X65420000Y-128525881D02*
X65420000Y-132845196D01*
X66215881Y-127730000D02*
X65420000Y-128525881D01*
X67680000Y-127730000D02*
X66215881Y-127730000D01*
X62160000Y-136105196D02*
X62160000Y-138698062D01*
X62160000Y-138698062D02*
X60558062Y-140300000D01*
X58960000Y-140300000D02*
X57800000Y-141460000D01*
X60558062Y-140300000D02*
X58960000Y-140300000D01*
X65420000Y-132845196D02*
X62160000Y-136105196D01*
%TO.N,/IO5*%
X67680000Y-128130000D02*
X66353283Y-128130000D01*
X62540000Y-136262598D02*
X62540000Y-139260000D01*
X62540000Y-139260000D02*
X60340000Y-141460000D01*
X65800000Y-133002598D02*
X62540000Y-136262598D01*
X65800000Y-128683283D02*
X65800000Y-133002598D01*
X66353283Y-128130000D02*
X65800000Y-128683283D01*
%TO.N,/IO6*%
X62920000Y-140600000D02*
X60720000Y-142800000D01*
X67680000Y-129330000D02*
X67075908Y-129330000D01*
X66200000Y-130205908D02*
X66200000Y-133140000D01*
X59000000Y-142800000D02*
X57800000Y-144000000D01*
X67075908Y-129330000D02*
X66200000Y-130205908D01*
X60720000Y-142800000D02*
X59000000Y-142800000D01*
X66200000Y-133140000D02*
X62920000Y-136420000D01*
X62920000Y-136420000D02*
X62920000Y-140600000D01*
%TO.N,/IO7*%
X66580000Y-133320000D02*
X63300000Y-136600000D01*
X63240000Y-141100000D02*
X60340000Y-144000000D01*
X66580000Y-130363310D02*
X66580000Y-133320000D01*
X63300000Y-136600000D02*
X63300000Y-141100000D01*
X67680000Y-129730000D02*
X67213310Y-129730000D01*
X67213310Y-129730000D02*
X66580000Y-130363310D01*
X63300000Y-141100000D02*
X63240000Y-141100000D01*
D32*
%TO.N,GND*%
X90955000Y-135750000D02*
X106445000Y-135750000D01*
D35*
X51000000Y-116000000D02*
X109000000Y-116000000D01*
D31*
X73580000Y-126130000D02*
X72430000Y-126130000D01*
D35*
X109000000Y-148500000D02*
X109000000Y-129400000D01*
D31*
X88600000Y-133395000D02*
X90955000Y-135750000D01*
X79900000Y-132600000D02*
X79700000Y-132800000D01*
D32*
X51100000Y-120800000D02*
X51000000Y-120900000D01*
D31*
X106445000Y-134475000D02*
X106445000Y-135750000D01*
D34*
X76500000Y-138450000D02*
X76500000Y-144450000D01*
D32*
X85840000Y-148360000D02*
X85700000Y-148500000D01*
D35*
X60600000Y-148500000D02*
X76500000Y-148500000D01*
X103300000Y-148500000D02*
X109000000Y-148500000D01*
D31*
X79900000Y-131000000D02*
X79900000Y-132600000D01*
D32*
X102785000Y-147985000D02*
X103300000Y-148500000D01*
D31*
X72430000Y-126130000D02*
X71980000Y-126580000D01*
D32*
X51600000Y-129600000D02*
X51000000Y-130200000D01*
X102785000Y-143700000D02*
X102785000Y-147985000D01*
D35*
X76500000Y-148500000D02*
X83200000Y-148500000D01*
D32*
X53750000Y-120800000D02*
X51100000Y-120800000D01*
D34*
X76500000Y-144450000D02*
X76500000Y-148500000D01*
D31*
X104420000Y-132450000D02*
X106445000Y-134475000D01*
D35*
X51000000Y-130200000D02*
X51000000Y-127200000D01*
X85700000Y-148500000D02*
X103300000Y-148500000D01*
D31*
X88600000Y-133395000D02*
X88600000Y-132737500D01*
D32*
X60340000Y-148240000D02*
X60600000Y-148500000D01*
X53062500Y-129600000D02*
X51600000Y-129600000D01*
X106445000Y-135750000D02*
X108750000Y-135750000D01*
X57800000Y-146540000D02*
X57800000Y-148500000D01*
X60340000Y-146540000D02*
X60340000Y-148240000D01*
D35*
X51000000Y-120900000D02*
X51000000Y-116000000D01*
X83200000Y-148500000D02*
X85700000Y-148500000D01*
X51000000Y-148500000D02*
X57800000Y-148500000D01*
D32*
X83300000Y-146540000D02*
X83300000Y-148400000D01*
X53062500Y-127700000D02*
X51500000Y-127700000D01*
D35*
X109000000Y-116000000D02*
X109000000Y-129400000D01*
X51000000Y-127200000D02*
X51000000Y-123800000D01*
D32*
X51500000Y-127700000D02*
X51000000Y-127200000D01*
D35*
X51000000Y-123800000D02*
X51000000Y-148500000D01*
X57800000Y-148500000D02*
X60600000Y-148500000D01*
X109000000Y-129400000D02*
X109000000Y-135500000D01*
X51000000Y-123800000D02*
X51000000Y-120900000D01*
D32*
X85840000Y-146540000D02*
X85840000Y-148360000D01*
X83300000Y-148400000D02*
X83200000Y-148500000D01*
D31*
X108750000Y-135750000D02*
X109000000Y-135500000D01*
%TO.N,/IO14*%
X74040001Y-134580000D02*
X81500000Y-134580000D01*
X70830000Y-130880000D02*
X70830000Y-131369999D01*
X81500000Y-134580000D02*
X83300000Y-136380000D01*
X70830000Y-131369999D02*
X74040001Y-134580000D01*
%TO.N,/IO15*%
X75880000Y-127270467D02*
X75551612Y-127598855D01*
X77400000Y-125200000D02*
X75880000Y-126720000D01*
X74936719Y-127652112D02*
X75481666Y-127652112D01*
X73580000Y-128130000D02*
X74458831Y-128130000D01*
X79000000Y-125200000D02*
X77400000Y-125200000D01*
X74458831Y-128130000D02*
X74936719Y-127652112D01*
X80100000Y-128900000D02*
X80100000Y-126300000D01*
X80100000Y-126300000D02*
X79000000Y-125200000D01*
X75880000Y-126720000D02*
X75880000Y-127270467D01*
X80880000Y-129680000D02*
X80100000Y-128900000D01*
X80880000Y-132866083D02*
X80880000Y-129680000D01*
X75481666Y-127652112D02*
X75516889Y-127616889D01*
X80625583Y-133120500D02*
X80880000Y-132866083D01*
%TO.N,/IO12*%
X73725199Y-135340000D02*
X79720000Y-135340000D01*
X70030000Y-130880000D02*
X70050000Y-130900000D01*
X79720000Y-135340000D02*
X83300000Y-138920000D01*
X70050000Y-130900000D02*
X70050000Y-131664803D01*
X70050000Y-131664803D02*
X73725199Y-135340000D01*
%TO.N,/IO13*%
X82900000Y-137600000D02*
X84520000Y-137600000D01*
X84520000Y-137600000D02*
X85840000Y-138920000D01*
X70430000Y-130880000D02*
X70430000Y-131507401D01*
X73882600Y-134960000D02*
X80260000Y-134960000D01*
X70430000Y-131507401D02*
X73882600Y-134960000D01*
X80260000Y-134960000D02*
X82900000Y-137600000D01*
%TO.N,/IO10*%
X69726613Y-133820000D02*
X71100000Y-133820000D01*
X81400000Y-138400000D02*
X81400000Y-139560000D01*
X68830000Y-132923387D02*
X69726613Y-133820000D01*
X73380000Y-136100000D02*
X79100000Y-136100000D01*
X79100000Y-136100000D02*
X81400000Y-138400000D01*
X71100000Y-133820000D02*
X73380000Y-136100000D01*
X81400000Y-139560000D02*
X83300000Y-141460000D01*
X68830000Y-130880000D02*
X68830000Y-132923387D01*
%TO.N,/IO11*%
X73567797Y-135720000D02*
X79300000Y-135720000D01*
X82830000Y-140330000D02*
X84710000Y-140330000D01*
X69884014Y-133440000D02*
X71287796Y-133440000D01*
X84710000Y-140330000D02*
X85840000Y-141460000D01*
X79300000Y-135720000D02*
X81900000Y-138320000D01*
X71287796Y-133440000D02*
X73567797Y-135720000D01*
X69230000Y-130880000D02*
X69230000Y-132785986D01*
X81900000Y-139400000D02*
X82830000Y-140330000D01*
X69230000Y-132785986D02*
X69884014Y-133440000D01*
X81900000Y-138320000D02*
X81900000Y-139400000D01*
%TO.N,/IO8*%
X78560000Y-136860000D02*
X80620000Y-138920000D01*
X80620000Y-141320000D02*
X83300000Y-144000000D01*
X80620000Y-138920000D02*
X80620000Y-141320000D01*
X69405197Y-134580000D02*
X70742598Y-134580000D01*
X67680000Y-132854803D02*
X69405197Y-134580000D01*
X73022599Y-136860000D02*
X78560000Y-136860000D01*
X67680000Y-130130000D02*
X67680000Y-132854803D01*
X70742598Y-134580000D02*
X73022599Y-136860000D01*
%TO.N,/IO9*%
X69562598Y-134200000D02*
X68430000Y-133067402D01*
X83041938Y-142800000D02*
X84700000Y-142800000D01*
X84800000Y-142900000D02*
X84800000Y-142960000D01*
X69562598Y-134200000D02*
X70900000Y-134200000D01*
X73180000Y-136480000D02*
X78780000Y-136480000D01*
X78780000Y-136480000D02*
X81000000Y-138700000D01*
X81000000Y-138700000D02*
X81000000Y-140758062D01*
X84700000Y-142800000D02*
X84800000Y-142900000D01*
X68430000Y-133067402D02*
X68430000Y-130880000D01*
X84800000Y-142960000D02*
X85840000Y-144000000D01*
X70900000Y-134200000D02*
X73180000Y-136480000D01*
X81000000Y-140758062D02*
X83041938Y-142800000D01*
%TO.N,/+1v*%
X73580000Y-128930000D02*
X74828362Y-128930000D01*
X69630000Y-132224320D02*
X70007267Y-132601587D01*
X69318223Y-123577979D02*
X69630000Y-123889756D01*
X70007267Y-132601587D02*
X70007267Y-132507267D01*
X73629500Y-130880000D02*
X73700000Y-130809500D01*
X74828362Y-128930000D02*
X75209431Y-129311069D01*
X69630000Y-123889756D02*
X69630000Y-124980000D01*
X72400000Y-123900000D02*
X72030000Y-124270000D01*
X72830000Y-130880000D02*
X73629500Y-130880000D01*
X69630000Y-130880000D02*
X69630000Y-132224320D01*
X76351431Y-129311069D02*
X77862500Y-127800000D01*
X75209431Y-129311069D02*
X76351431Y-129311069D01*
X72030000Y-124270000D02*
X72030000Y-124980000D01*
X72400000Y-123600000D02*
X72400000Y-123900000D01*
%TO.N,/ENSWREG*%
X73600000Y-129750000D02*
X74150000Y-129750000D01*
X74150000Y-129750000D02*
X76120000Y-131720000D01*
X73580000Y-129730000D02*
X73600000Y-129750000D01*
X76120000Y-131720000D02*
X76920000Y-131720000D01*
X76920000Y-131720000D02*
X77900000Y-132700000D01*
%TD*%
M02*
